<svg width="397" height="604" viewBox="0 0 397 604" fill="none" xmlns="http://www.w3.org/2000/svg">
<path d="M230.26 38.2836C226.245 34.2686 218.516 19.0567 225.924 11.8938C233.332 4.73079 239.93 11.234 240.439 14.7212C240.948 18.2085 239.59 47.5955 230.26 38.2836Z" fill="#1D2C34"/>
<path d="M228.563 585.478L211.73 585.628L207.15 546.722L223.964 546.571L228.563 585.478Z" fill="#FFA99E"/>
<path d="M211.711 583.687L230.071 583.517C230.41 583.522 230.738 583.634 231.009 583.838C231.28 584.041 231.48 584.325 231.579 584.648L236.028 599.559C236.146 599.906 236.179 600.276 236.123 600.638C236.068 601.001 235.926 601.345 235.71 601.641C235.493 601.936 235.209 602.176 234.88 602.338C234.552 602.501 234.189 602.582 233.822 602.575C227.206 602.575 217.593 602.216 209.317 602.292C199.591 602.292 195.255 602.97 183.832 603.083C176.933 603.083 174.407 596.184 177.329 595.544C190.279 592.546 196.971 592.151 207.809 585.044C208.95 584.221 210.306 583.75 211.711 583.687V583.687Z" fill="#1D2C34"/>
<path opacity="0.2" d="M207.15 546.741L209.525 566.797L226.339 566.647L223.983 546.59L207.15 546.741Z" fill="black"/>
<path d="M204.756 586.684C206.571 586.652 208.378 586.431 210.147 586.024C210.231 586.012 210.308 585.972 210.366 585.91C210.424 585.849 210.46 585.769 210.467 585.685C210.475 585.604 210.457 585.522 210.417 585.451C210.376 585.38 210.315 585.324 210.241 585.289C209.449 584.893 202.381 581.519 200.439 582.707C200.26 582.821 200.113 582.981 200.014 583.169C199.915 583.357 199.866 583.568 199.874 583.781C199.869 584.144 199.949 584.503 200.105 584.83C200.262 585.156 200.493 585.443 200.778 585.666C201.957 586.431 203.354 586.789 204.756 586.684V586.684ZM208.79 585.478C205.152 586.119 202.381 585.987 201.25 585.082C201.054 584.929 200.898 584.731 200.796 584.504C200.694 584.277 200.65 584.029 200.665 583.781C200.654 583.704 200.666 583.625 200.7 583.555C200.733 583.484 200.787 583.425 200.854 583.385C201.909 582.744 205.906 584.252 208.79 585.478V585.478Z" fill="#407BFF"/>
<path d="M210.071 586.137C210.161 586.131 210.246 586.098 210.316 586.043C210.373 586.001 210.416 585.942 210.44 585.875C210.463 585.808 210.466 585.735 210.448 585.666C210.448 585.365 209.129 578.126 205.133 578.579C204.077 578.692 203.776 579.238 203.719 579.653C203.436 581.538 207.753 585.195 209.902 586.1L210.071 586.137ZM205.472 579.351C207.885 579.351 209.091 583.291 209.506 585.006C207.282 583.762 204.341 580.897 204.511 579.766C204.511 579.766 204.511 579.446 205.227 579.37L205.472 579.351Z" fill="#407BFF"/>
<path d="M216.669 123.24L214.935 125.125L213.314 126.727C212.239 127.783 211.127 128.782 210.015 129.762C207.803 131.748 205.541 133.633 203.229 135.417C198.563 139.126 193.65 142.514 188.526 145.558C185.944 147.085 183.286 148.537 180.59 149.913C177.895 151.289 175.048 152.476 172.183 153.683C166.307 156.027 160.187 157.702 153.936 158.678L152.541 158.885C151.635 159.002 150.722 159.059 149.808 159.055C147.709 159.035 145.632 158.626 143.682 157.849C141.748 157.072 139.977 155.941 138.461 154.512C137.252 153.36 136.2 152.055 135.332 150.629C134.128 148.561 133.221 146.333 132.636 144.013C132.179 142.215 131.845 140.389 131.637 138.546C131.294 135.36 131.199 132.152 131.354 128.952C131.486 125.898 131.731 122.957 132.07 120.073C132.787 114.286 133.805 108.763 135.049 103.108C136.293 97.4535 137.707 92.2321 139.535 86.7656L151.919 89.2161C151.467 99.8098 150.958 110.667 151.297 120.922C151.359 125.683 151.864 130.429 152.805 135.097C152.991 135.959 153.25 136.804 153.578 137.623C153.842 138.264 154.163 138.659 154.144 138.49C154.034 138.203 153.86 137.945 153.635 137.736C153.122 137.24 152.521 136.843 151.863 136.567C151.185 136.282 150.466 136.11 149.733 136.058C149.394 136.058 149.243 136.058 149.035 136.058H149.243L149.639 135.945C154.104 134.798 158.447 133.22 162.607 131.233C166.96 129.132 171.173 126.752 175.218 124.107C179.308 121.393 183.342 118.452 187.225 115.342C189.11 113.796 191.09 112.175 192.88 110.535L195.632 108.047L196.952 106.822L198.102 105.729L216.669 123.24Z" fill="#FFA99E"/>
<path d="M226.64 116.586C226 98.8107 211.41 92.6279 193.125 104.748C185.065 109.859 177.305 115.429 169.883 121.431L181.702 159.394C181.702 159.394 204.322 152.213 217.404 138.113C226.207 128.537 226.867 122.637 226.64 116.586Z" fill="#1D2C34"/>
<path opacity="0.2" d="M204.379 124.164C204.379 124.164 193.465 139.772 189.6 156.359C194.966 154.071 200.136 151.348 205.057 148.216L204.379 124.164Z" fill="black"/>
<path d="M151.297 94.8522L157.631 80.5451L139.705 75.3049C139.705 75.3049 136.632 82.1474 138.385 93.8909L151.297 94.8522Z" fill="#FFA99E"/>
<path d="M159.535 63.7687L143.946 65.6349L139.705 75.3049L157.631 80.5451L159.535 63.7687Z" fill="#FFA99E"/>
<path d="M204.492 245.444C204.492 245.444 192.918 342.446 191.636 394.359C190.317 448.288 200.891 557.071 200.891 557.071L231.259 556.43C231.259 556.43 234.916 439.975 239.326 386.611C244.114 328.44 256.178 244.389 256.178 244.389L204.492 245.444Z" fill="#407BFF"/>
<path opacity="0.6" d="M204.492 245.444C204.492 245.444 192.918 342.446 191.636 394.359C190.317 448.288 200.891 557.071 200.891 557.071L231.259 556.43C231.259 556.43 234.916 439.975 239.326 386.611C244.114 328.44 256.178 244.389 256.178 244.389L204.492 245.444Z" fill="white"/>
<path opacity="0.2" d="M240.665 272.908C227.093 302.823 230.731 369.646 238.44 398.298C238.723 394.132 239.025 390.193 239.326 386.555C242.474 348.214 248.751 298.657 252.729 269.308C249.034 263.955 244.906 263.54 240.665 272.908Z" fill="black"/>
<path d="M234.991 557.731L199.289 558.447L196.65 546.59L234.557 546.496L234.991 557.731Z" fill="#407BFF"/>
<path d="M303.567 585.478L286.753 585.628L282.172 546.722L298.986 546.571L303.567 585.478Z" fill="#FFA99E"/>
<path d="M286.715 583.687L305.094 583.517C305.432 583.525 305.759 583.638 306.029 583.841C306.299 584.044 306.5 584.326 306.602 584.648L311.05 599.559C311.164 599.906 311.194 600.275 311.136 600.635C311.079 600.996 310.937 601.338 310.721 601.632C310.506 601.927 310.223 602.166 309.897 602.33C309.571 602.494 309.21 602.578 308.845 602.575C302.21 602.575 292.615 602.216 284.34 602.292C274.613 602.292 270.259 602.97 258.855 603.083C251.956 603.083 249.43 596.184 252.352 595.544C265.283 592.546 271.974 592.151 282.832 585.044C283.966 584.222 285.316 583.75 286.715 583.687V583.687Z" fill="#1D2C34"/>
<path opacity="0.2" d="M282.172 546.741L284.529 566.797L301.361 566.647L299.005 546.59L282.172 546.741Z" fill="black"/>
<path d="M279.778 586.684C281.593 586.649 283.4 586.428 285.169 586.024C285.251 586.011 285.326 585.97 285.381 585.909C285.436 585.847 285.468 585.768 285.471 585.685C285.483 585.606 285.47 585.524 285.432 585.453C285.395 585.382 285.336 585.324 285.264 585.289C284.453 584.893 277.384 581.519 275.462 582.707C275.28 582.818 275.131 582.977 275.031 583.166C274.932 583.355 274.885 583.568 274.896 583.781C274.892 584.142 274.97 584.499 275.123 584.825C275.277 585.152 275.502 585.439 275.782 585.666C276.969 586.429 278.371 586.786 279.778 586.684ZM283.812 585.478C280.174 586.119 277.403 585.987 276.272 585.082C276.078 584.927 275.922 584.728 275.817 584.503C275.712 584.277 275.662 584.03 275.669 583.781C275.658 583.704 275.67 583.625 275.704 583.555C275.737 583.484 275.791 583.425 275.858 583.385C276.913 582.744 280.872 584.252 283.812 585.478V585.478Z" fill="#407BFF"/>
<path d="M285.075 586.137C285.133 586.135 285.19 586.121 285.242 586.096C285.294 586.07 285.34 586.034 285.378 585.99C285.415 585.945 285.443 585.894 285.459 585.838C285.475 585.782 285.479 585.724 285.471 585.666C285.471 585.365 284.152 578.126 280.155 578.579C279.1 578.692 278.798 579.238 278.723 579.653C278.459 581.538 282.775 585.195 284.924 586.1L285.075 586.137ZM280.495 579.351C282.889 579.351 284.114 583.291 284.529 585.006C282.304 583.762 279.345 580.897 279.514 579.766C279.514 579.766 279.514 579.446 280.231 579.37L280.495 579.351Z" fill="#407BFF"/>
<path d="M234.124 244.803C234.124 244.803 242.512 349.175 248.638 400.673C254.991 454.245 275.914 557.014 275.914 557.014L306.281 556.373C306.281 556.373 297.95 439.693 294.726 386.234C291.201 327.894 290.297 243.521 290.297 243.521L234.124 244.803Z" fill="#407BFF"/>
<path opacity="0.6" d="M234.124 244.803C234.124 244.803 242.512 349.175 248.638 400.673C254.991 454.245 275.914 557.014 275.914 557.014L306.281 556.373C306.281 556.373 297.95 439.693 294.726 386.234C291.201 327.894 290.297 243.521 290.297 243.521L234.124 244.803Z" fill="white"/>
<path d="M310.014 557.731L274.293 558.447L271.673 546.59L309.58 546.496L310.014 557.731Z" fill="#407BFF"/>
<path d="M202.399 100.092C202.399 100.092 189.977 146.199 204.492 245.444C231.598 244.86 277.12 243.804 290.297 243.559C290.636 229.742 280.438 161.996 292.37 96.6806C283.786 95.1984 275.104 94.3541 266.395 94.1548C253.647 93.6893 240.883 93.9662 228.167 94.9842C219.458 96.0145 210.843 97.7225 202.399 100.092V100.092Z" fill="#1D2C34"/>
<path opacity="0.2" d="M287.168 143.165L273.124 131.534C274.048 140.62 282.267 162.882 286.602 174.154C286.527 164.276 286.621 153.852 287.168 143.165Z" fill="black"/>
<path d="M236.933 126.822L221.608 157.151C221.284 157.788 221.171 158.511 221.284 159.216C221.398 159.922 221.732 160.573 222.239 161.076C222.747 161.579 223.401 161.908 224.107 162.016C224.813 162.123 225.535 162.004 226.169 161.675L236.179 156.171C236.723 155.878 237.338 155.744 237.955 155.784C238.571 155.824 239.164 156.037 239.666 156.397L249.524 163.504C250.09 163.915 250.774 164.134 251.474 164.127C252.174 164.121 252.854 163.889 253.412 163.466C253.97 163.043 254.377 162.452 254.573 161.78C254.769 161.108 254.744 160.39 254.501 159.734L242.983 127.349C242.783 126.733 242.406 126.19 241.899 125.787C241.392 125.384 240.778 125.139 240.133 125.082C239.487 125.026 238.84 125.161 238.271 125.47C237.702 125.78 237.236 126.25 236.933 126.822Z" fill="white"/>
<path d="M261.682 51.1016C259.534 63.4671 257.611 86.0493 266.395 94.0605C266.395 94.0605 263.831 105.257 240.439 109.14C224.718 104.089 228.167 94.9653 228.167 94.9653C241.815 91.3838 241.23 81.2237 238.648 71.7234L261.682 51.1016Z" fill="#FFA99E"/>
<path opacity="0.2" d="M252.295 59.4898L238.648 71.6291C239.283 73.8423 239.725 76.1065 239.967 78.3962C245.208 77.5291 252.276 71.6103 252.71 66.125C252.977 63.9064 252.836 61.6578 252.295 59.4898V59.4898Z" fill="black"/>
<path d="M269.166 35.8897C264.623 51.9498 262.795 61.5821 252.766 68.1608C237.687 78.0381 219.195 66.2758 218.837 49.1412C218.497 33.7597 225.962 10.0653 243.341 7.04934C247.159 6.37214 251.086 6.68085 254.751 7.94623C258.416 9.21162 261.696 11.3918 264.283 14.2801C266.869 17.1685 268.675 20.6693 269.53 24.451C270.384 28.2327 270.259 32.1699 269.166 35.8897V35.8897Z" fill="#FFA99E"/>
<path d="M259.496 45.7294C257.385 40.6022 255.858 23.7127 264.661 19.5657C273.464 15.4187 282.606 25.5411 280.287 30.329C276.725 37.7559 264.397 57.6048 259.496 45.7294Z" fill="#1D2C34"/>
<path d="M264.755 25.5222C262.587 19.8673 236.744 16.6628 233.125 10.5743C228.827 3.33591 246.452 2.4688 258.572 6.14453C269.222 9.38672 276.329 12.5158 275.085 20.4328C274.387 24.919 264.755 25.5222 264.755 25.5222Z" fill="#1D2C34"/>
<path d="M270.372 19.6976C270.372 19.6976 276.027 21.2433 279.119 17.0963C278.138 21.2056 273.332 25.3526 270.372 19.6976Z" fill="#1D2C34"/>
<path d="M244.491 2.26145C236.725 -3.77052 226.15 3.31705 227.149 11.1775C228.148 19.0379 254.331 25.0133 254.331 25.0133C254.331 25.0133 254.802 10.2727 244.491 2.26145Z" fill="#1D2C34"/>
<path d="M227.168 11.2152C228.356 16.7193 232.371 21.036 240.495 24.2404C235.793 20.7634 232.23 15.9673 230.26 10.4612L227.168 11.2152Z" fill="#1D2C34"/>
<path d="M243.473 35.0791C243.191 36.4175 242.267 37.3411 241.4 37.1526C240.533 36.9641 240.062 35.72 240.344 34.4005C240.627 33.081 241.57 32.1574 242.437 32.3459C243.304 32.5344 243.775 33.835 243.473 35.0791Z" fill="#1D2C34"/>
<path d="M228.507 31.837C228.205 33.1565 227.281 34.0801 226.414 33.8916C225.547 33.7031 225.076 32.4779 225.359 31.1584C225.641 29.8389 226.584 28.9153 227.451 29.0849C228.318 29.2546 228.789 30.5175 228.507 31.837Z" fill="#1D2C34"/>
<path d="M233.125 33.5334C230.664 37.2415 227.702 40.5909 224.322 43.4862C226.207 46.1817 230.41 46.0498 230.41 46.0498L233.125 33.5334Z" fill="#E78482"/>
<path d="M233.464 50.5549C235.234 50.9945 237.084 50.9996 238.857 50.5696C240.629 50.1396 242.271 49.2874 243.643 48.0856C243.681 48.0487 243.711 48.0047 243.731 47.9562C243.751 47.9076 243.762 47.8555 243.762 47.8028C243.762 47.7502 243.751 47.698 243.731 47.6495C243.711 47.6009 243.681 47.5569 243.643 47.5201C243.566 47.4485 243.465 47.4088 243.36 47.4088C243.255 47.4088 243.154 47.4485 243.078 47.5201C241.791 48.6033 240.268 49.3704 238.631 49.7599C236.995 50.1494 235.29 50.1505 233.653 49.7632C233.548 49.7407 233.438 49.7609 233.348 49.8192C233.258 49.8775 233.194 49.9693 233.172 50.0742C233.149 50.1792 233.17 50.2889 233.228 50.379C233.286 50.4691 233.378 50.5324 233.483 50.5549H233.464Z" fill="#1D2C34"/>
<path d="M249.034 31.2338C249.179 31.2627 249.329 31.2516 249.467 31.2017C249.606 31.1518 249.729 31.0649 249.822 30.9505C249.915 30.8361 249.975 30.6984 249.996 30.5523C250.016 30.4063 249.997 30.2574 249.939 30.1216C249.43 28.9606 248.651 27.9378 247.668 27.1379C246.684 26.338 245.524 25.7841 244.284 25.5222C244.074 25.4951 243.863 25.5509 243.694 25.6777C243.525 25.8044 243.412 25.9921 243.379 26.2008C243.363 26.3036 243.367 26.4085 243.392 26.5095C243.416 26.6106 243.46 26.7059 243.522 26.7899C243.583 26.8739 243.66 26.9451 243.749 26.9992C243.838 27.0534 243.936 27.0896 244.039 27.1056V27.1056C245.017 27.3206 245.929 27.7664 246.7 28.4058C247.471 29.0452 248.077 29.8598 248.469 30.7814C248.521 30.8954 248.6 30.9957 248.698 31.0742C248.796 31.1528 248.911 31.2074 249.034 31.2338V31.2338Z" fill="#1D2C34"/>
<path d="M223.04 25.2583C223.188 25.2993 223.345 25.2941 223.49 25.2436C223.634 25.1931 223.76 25.0996 223.851 24.9756C224.447 24.1749 225.224 23.5257 226.118 23.0804C227.012 22.6351 227.998 22.4061 228.997 22.412C229.207 22.432 229.416 22.3678 229.579 22.2334C229.741 22.0991 229.844 21.9057 229.864 21.6957C229.884 21.4857 229.82 21.2764 229.685 21.1138C229.551 20.9512 229.357 20.8486 229.147 20.8286C227.883 20.7911 226.628 21.0594 225.489 21.6107C224.35 22.1621 223.361 22.9801 222.607 23.9954C222.54 24.076 222.49 24.1694 222.46 24.2699C222.431 24.3703 222.422 24.4758 222.434 24.5798C222.446 24.6838 222.48 24.7842 222.532 24.8749C222.584 24.9657 222.655 25.0448 222.739 25.1076C222.824 25.1831 222.928 25.2351 223.04 25.2583V25.2583Z" fill="#1D2C34"/>
<path d="M296.479 109.536C299.91 115.531 302.775 121.336 305.754 127.312C308.732 133.287 311.409 139.3 313.953 145.445C316.498 151.59 318.967 157.83 321.116 164.295C323.351 170.743 325.238 177.306 326.771 183.956L327.921 189.102C328.424 191.518 328.639 193.986 328.562 196.453C328.402 201.037 327.385 205.551 325.565 209.761C322.364 216.856 317.812 223.258 312.163 228.611C307.123 233.476 301.632 237.851 295.763 241.674C292.917 243.559 289.976 245.293 287.017 246.952C284.057 248.611 281.117 250.138 277.818 251.589L271.56 240.637C273.841 238.752 276.348 236.867 278.685 234.832C281.022 232.796 283.303 230.722 285.565 228.649C289.933 224.597 293.985 220.217 297.686 215.548C300.977 211.544 303.53 206.987 305.226 202.089C305.809 200.265 306.039 198.345 305.904 196.434C305.849 195.666 305.704 194.907 305.471 194.172L304.189 189.95C300.38 178.238 295.847 166.774 290.617 155.624C288.035 149.969 285.283 144.314 282.53 138.659C279.778 133.004 276.876 127.349 274.067 121.977L296.479 109.536Z" fill="#FFA99E"/>
<path d="M293.011 96.7749C308.732 100.168 319.665 141.185 319.665 141.185L291.56 166.689C282.624 156.748 275.595 145.246 270.825 132.759C263.379 112.232 276.197 93.118 293.011 96.7749Z" fill="#1D2C34"/>
<path d="M274.972 238.696L256.895 238.884L268.205 257.112C268.205 257.112 281.079 253.927 282.229 247.461L274.972 238.696Z" fill="#FFA99E"/>
<path d="M245.641 249.648L255.613 264.275L268.11 257.112L256.895 238.884L245.641 249.648Z" fill="#FFA99E"/>
<path d="M274.105 50.5926C272.096 54.2879 268.708 57.039 264.68 58.2457C259.326 59.8102 256.593 55.0412 258.026 49.9706C259.326 45.4089 263.681 39.0942 269.034 39.7539C274.387 40.4137 276.498 46.0498 274.105 50.5926Z" fill="#FFA99E"/>
<path d="M252.371 433.632L232.274 435.09L232.41 436.97L252.508 435.512L252.371 433.632Z" fill="#407BFF"/>
<path d="M270.43 432.329L260.56 433.045L260.697 434.925L270.567 434.209L270.43 432.329Z" fill="#407BFF"/>
<path d="M357.151 211.059L24.3373 235.054C17.4106 235.595 10.9764 238.845 6.43104 244.1C1.88569 249.354 -0.404088 256.19 0.0586412 263.122L11.3686 419.991C11.9041 426.928 15.1576 433.373 20.4211 437.923C25.6846 442.474 32.5322 444.761 39.4738 444.288L58.3237 442.931C59.6932 442.833 61.0459 443.281 62.0849 444.179C63.1239 445.077 63.7643 446.35 63.8656 447.719L65.9768 476.786C66.0112 477.349 66.2132 477.888 66.5568 478.336C66.9004 478.783 67.3698 479.117 67.9049 479.295C68.4399 479.474 69.016 479.488 69.5592 479.336C70.1024 479.185 70.5879 478.874 70.9532 478.444L102.508 441.97C103.835 440.442 105.711 439.5 107.729 439.35L372.231 420.293C379.161 419.757 385.6 416.509 390.15 411.253C394.699 405.998 396.991 399.16 396.529 392.225L385.219 235.356C384.683 228.426 381.435 221.987 376.18 217.438C370.925 212.888 364.087 210.596 357.151 211.059V211.059Z" fill="#407BFF"/>
<path d="M72.9512 307.061L90.9341 305.76L92.4044 326.118L112.046 324.705L110.576 304.347L128.634 303.027L132.837 361.198L114.779 362.499L113.083 338.974L93.4411 340.407L95.1376 363.931L77.1736 365.232L72.9512 307.061Z" fill="white"/>
<path opacity="0.2" d="M24.3373 235.054C17.4106 235.595 10.9764 238.845 6.43103 244.1C1.88568 249.354 -0.404096 256.19 0.0586336 263.122L11.3686 419.991C11.9041 426.928 15.1576 433.373 20.4211 437.923C25.6846 442.474 32.5321 444.761 39.4738 444.288L42.2447 444.081C46.8487 443.748 51.2141 441.905 54.6633 438.838C58.1126 435.77 60.4528 431.65 61.3208 427.116L99.228 229.645L24.3373 235.054Z" fill="black"/>
<path d="M189.255 339.973L156.871 342.31C157.119 344.408 158 346.381 159.397 347.965C160.198 348.808 161.183 349.454 162.275 349.853C163.367 350.252 164.537 350.393 165.693 350.265C167.28 350.152 168.812 349.632 170.141 348.757C171.182 347.969 172.07 346.998 172.762 345.892L188.784 346.212C187.041 350.163 184.21 353.536 180.622 355.939C177.329 358.025 172.466 359.282 166.032 359.709C161.534 360.233 156.975 359.75 152.686 358.295C149.248 356.852 146.297 354.45 144.185 351.377C141.764 347.879 140.372 343.771 140.17 339.521C139.834 336.569 140.119 333.58 141.009 330.745C141.899 327.911 143.372 325.295 145.335 323.065C149.256 318.692 154.911 316.235 162.3 315.694C167.192 315.113 172.152 315.694 176.777 317.391C180.318 318.904 183.301 321.479 185.316 324.761C187.621 328.837 188.914 333.408 189.086 338.088L189.255 339.973ZM172.29 333.413C172.061 330.962 171.004 328.662 169.293 326.891C168.431 326.228 167.443 325.749 166.388 325.484C165.334 325.219 164.236 325.173 163.163 325.35C162.09 325.527 161.065 325.922 160.151 326.511C159.238 327.101 158.455 327.872 157.851 328.776C156.845 330.55 156.337 332.562 156.381 334.601L172.29 333.413Z" fill="white"/>
<path d="M194.25 298.296L210.443 297.127L214.646 355.279L198.454 356.448L194.25 298.296Z" fill="white"/>
<path d="M221.3 296.336L237.492 295.167L241.696 353.319L225.522 354.487L221.3 296.336Z" fill="white"/>
<path d="M248.519 331.773C248.213 328.823 248.532 325.842 249.454 323.023C250.377 320.204 251.882 317.61 253.873 315.412C257.907 310.925 263.618 308.412 271.007 307.872C279.427 307.268 285.974 309.254 290.649 313.828C294.532 317.923 296.775 323.302 296.952 328.942C297.129 334.582 295.228 340.091 291.61 344.422C287.614 348.87 281.821 351.384 274.231 351.962C268.334 352.669 262.378 351.267 257.416 348.003C254.778 346.172 252.601 343.753 251.057 340.936C249.513 338.12 248.644 334.983 248.519 331.773V331.773ZM264.711 330.567C264.681 333.542 265.703 336.433 267.595 338.729C268.359 339.511 269.283 340.117 270.304 340.506C271.325 340.895 272.419 341.058 273.509 340.982C274.599 340.907 275.66 340.596 276.617 340.07C277.575 339.544 278.407 338.816 279.056 337.937C280.58 335.313 281.152 332.244 280.677 329.247C280.696 326.332 279.688 323.503 277.831 321.255C277.105 320.459 276.205 319.84 275.202 319.448C274.198 319.056 273.118 318.9 272.044 318.993C270.924 319.045 269.832 319.355 268.851 319.897C267.87 320.44 267.028 321.201 266.389 322.122C264.87 324.658 264.302 327.651 264.787 330.567H264.711Z" fill="white"/>
<path d="M302.053 290.492L319.301 289.248L320.262 302.443L318.848 329.304L308.179 330.077L302.996 303.687L302.053 290.492ZM305.823 334.375L321.921 333.206L322.958 347.456L306.841 348.606L305.823 334.375Z" fill="white"/>
</svg>
