<svg width="1134" height="1646" viewBox="0 0 1134 1646" fill="none" xmlns="http://www.w3.org/2000/svg">
<path d="M733.069 65.9332L694.608 121.244L730.387 148.029L762.392 101.2" fill="#FABDB4"/>
<path d="M733.069 65.9332L694.608 121.244L730.387 148.029L762.392 101.2" stroke="#1D2C34" stroke-linecap="round" stroke-linejoin="round"/>
<path d="M684.016 123.432L713.612 84.0577L756.937 116.11L735.479 155.261L684.016 123.432Z" fill="#B3CAFF" stroke="#1D2C34" stroke-linecap="round" stroke-linejoin="round"/>
<path d="M432.065 326.015L433.065 456.681C433.065 456.681 449.204 448.824 472.299 437.039C513.897 415.745 577.998 381.772 610.367 358.336C617.181 353.826 623.304 348.384 628.552 342.175C649.51 312.756 752.8 139.19 752.8 139.19L697.473 100.084L597.456 244.991L572.906 280.704L570.633 281.463L432.065 326.015Z" fill="#1D2C34"/>
<path opacity="0.3" d="M454.523 377.844L472.435 437.039C514.033 415.745 578.134 381.772 610.503 358.336C546.947 370.21 454.523 377.844 454.523 377.844Z" fill="#17232A" fill-opacity="0.7"/>
<path opacity="0.3" d="M570.633 281.24C590.273 286.373 596.365 299.096 596.365 299.096C605.457 275.391 602.684 257.222 597.456 244.946L572.906 280.659L570.633 281.24Z" fill="#17232A" fill-opacity="0.7"/>
<path d="M432.065 326.015L433.065 456.681C433.065 456.681 449.204 448.824 472.299 437.039C513.897 415.745 577.998 381.772 610.367 358.336C617.181 353.826 623.304 348.384 628.552 342.175C649.51 312.756 752.8 139.19 752.8 139.19L697.473 100.084L597.456 244.991L572.906 280.704L570.633 281.463L432.065 326.015Z" stroke="#1D2C34" stroke-linecap="round" stroke-linejoin="round"/>
<path d="M730.933 76.4686C729.329 73.2928 728.401 69.8297 728.205 66.2903C727.878 61.5466 728.339 56.7822 729.569 52.1836C730.782 47.4694 732.697 42.9567 735.252 38.7911C737.481 35.0115 739.382 31.0542 740.934 26.9611C742.025 24.1934 742.98 21.4256 743.798 18.7917C745.49 13.3389 746.856 7.79398 747.89 2.18505C747.89 2.18505 756.982 -0.805954 757.983 7.85451C758.212 10.2384 758.105 12.642 757.664 14.9972C756.937 19.0149 755.619 23.1666 754.846 26.5147C754.161 28.4214 754.035 30.4785 754.482 32.452C754.814 33.1876 755.242 33.8778 755.755 34.5055L756.301 35.2198C757.425 36.548 758.86 37.5894 760.483 38.2554C761.189 38.5496 761.944 38.716 762.711 38.7465C762.905 38.7938 763.108 38.7938 763.302 38.7465C763.861 38.81 764.425 38.81 764.984 38.7465C767.959 38.1213 770.823 37.0683 773.485 35.6216V35.6216C777.46 33.5826 781.275 31.2547 784.896 28.6575V28.6575C786.26 27.6307 787.578 26.6486 788.851 25.6219C792.021 23.0987 795.056 20.4166 797.944 17.5864C799.99 15.5775 802.263 13.3901 804.627 11.3366C806.991 9.28307 809.173 7.45274 811.355 5.801C817.811 1.02435 823.721 -1.43092 825.767 3.47966C827.812 8.39023 825.357 9.86339 820.175 14.5954C818.356 16.2471 816.174 18.256 813.674 20.756C809.354 25.2146 805.388 29.9902 801.808 35.0412V35.0412L800.399 37.0055L802.308 39.5947C801.99 40.0857 803.126 39.5947 805.309 38.7018C810.986 35.907 816.469 32.7454 821.72 29.2378C824.084 27.72 826.585 25.979 829.04 24.238C831.495 22.497 833.586 20.9792 835.586 19.2828C846.088 10.8455 848.543 20.5327 846.815 24.8183C844.021 28.5852 840.48 31.7587 836.405 34.1484L829.085 39.4607L825.676 42.0946C821.13 45.6659 816.583 49.2819 813.537 51.7818L812.264 52.7639L813.355 56.8263L815.31 56.3353C820.988 54.9363 826.527 53.0389 831.858 50.6658C835.45 49.0587 838.223 47.5409 840.405 46.2016C844.497 44.1035 846.725 43.3892 849.498 45.7998C852.271 48.2105 849.498 52.7193 844.952 56.5585C841.318 59.5459 837.239 61.9697 832.859 63.7458V63.7458C832.07 64.0399 831.265 64.2932 830.449 64.5047C826.345 65.8147 822.432 67.6456 818.811 69.9509L816.583 71.2456L815.81 74.549L819.447 74.1919C823.274 73.7285 827.069 73.0428 830.813 72.1384V72.1384C833.806 71.3263 836.841 70.6707 839.905 70.1742C840.845 69.928 841.839 69.9667 842.756 70.2854C843.673 70.6041 844.47 71.1878 845.042 71.9598C846.815 74.549 844.042 77.4061 839.814 79.7721C837.241 81.1461 834.529 82.2533 831.722 83.0756C829.662 83.7425 827.523 84.1475 825.357 84.2809C821.315 84.788 817.347 85.762 813.537 87.1826L808.991 88.8343C803.354 90.8432 798.171 92.9413 796.398 93.6556L795.716 93.9235C791.988 96.3341 788.715 98.3876 785.805 99.8608C778.993 103.866 771.347 106.308 763.438 107.003C759.777 106.949 756.259 105.602 753.527 103.209" fill="#FABDB4"/>
<path d="M730.933 76.4686C729.329 73.2928 728.401 69.8297 728.205 66.2903C727.878 61.5466 728.339 56.7822 729.569 52.1836C730.782 47.4694 732.697 42.9567 735.252 38.7911C737.481 35.0115 739.382 31.0542 740.934 26.9611C742.025 24.1934 742.98 21.4256 743.798 18.7917C745.49 13.3389 746.856 7.79398 747.89 2.18505C747.89 2.18505 756.982 -0.805954 757.983 7.85451C758.212 10.2384 758.105 12.642 757.664 14.9972C756.937 19.0149 755.619 23.1666 754.846 26.5147C754.161 28.4214 754.035 30.4785 754.482 32.452C754.814 33.1876 755.242 33.8778 755.755 34.5055L756.301 35.2198C757.425 36.548 758.86 37.5894 760.483 38.2554C761.189 38.5496 761.944 38.716 762.711 38.7465C762.905 38.7938 763.108 38.7938 763.302 38.7465C763.861 38.81 764.425 38.81 764.984 38.7465C767.959 38.1213 770.823 37.0683 773.485 35.6216V35.6216C777.46 33.5826 781.275 31.2547 784.896 28.6575V28.6575C786.26 27.6307 787.578 26.6486 788.851 25.6219C792.021 23.0987 795.056 20.4166 797.944 17.5864C799.99 15.5775 802.263 13.3901 804.627 11.3366C806.991 9.28307 809.173 7.45274 811.355 5.801C817.811 1.02435 823.721 -1.43092 825.767 3.47966C827.812 8.39023 825.357 9.86339 820.175 14.5954C818.356 16.2471 816.174 18.256 813.674 20.756C809.354 25.2146 805.388 29.9902 801.808 35.0412V35.0412L800.399 37.0055L802.308 39.5947C801.99 40.0857 803.126 39.5947 805.309 38.7018C810.986 35.907 816.469 32.7454 821.72 29.2378C824.084 27.72 826.585 25.979 829.04 24.238C831.495 22.497 833.586 20.9792 835.586 19.2828C846.088 10.8455 848.543 20.5327 846.815 24.8183C844.021 28.5852 840.48 31.7587 836.405 34.1484L829.085 39.4607L825.676 42.0946C821.13 45.6659 816.583 49.2819 813.537 51.7818L812.264 52.7639L813.355 56.8263L815.31 56.3353C820.988 54.9363 826.527 53.0389 831.858 50.6658C835.45 49.0587 838.223 47.5409 840.405 46.2016C844.497 44.1035 846.725 43.3892 849.498 45.7998C852.271 48.2105 849.498 52.7193 844.952 56.5585C841.318 59.5459 837.239 61.9697 832.859 63.7458V63.7458C832.07 64.0399 831.265 64.2932 830.449 64.5047C826.345 65.8147 822.432 67.6456 818.811 69.9509L816.583 71.2456L815.81 74.549L819.447 74.1919C823.274 73.7285 827.069 73.0428 830.813 72.1384V72.1384C833.806 71.3263 836.841 70.6707 839.905 70.1742C840.845 69.928 841.839 69.9667 842.756 70.2854C843.673 70.6041 844.47 71.1878 845.042 71.9598C846.815 74.549 844.042 77.4061 839.814 79.7721C837.241 81.1461 834.529 82.2533 831.722 83.0756C829.662 83.7425 827.523 84.1475 825.357 84.2809C821.315 84.788 817.347 85.762 813.537 87.1826L808.991 88.8343C803.354 90.8432 798.171 92.9413 796.398 93.6556L795.716 93.9235C791.988 96.3341 788.715 98.3876 785.805 99.8608C778.993 103.866 771.347 106.308 763.438 107.003C759.777 106.949 756.259 105.602 753.527 103.209" stroke="#1D2C34" stroke-linecap="round" stroke-linejoin="round"/>
<path d="M763.393 39.0144C763.393 39.0144 775.622 53.7461 765.529 67.8528" stroke="#1D2C34" stroke-linecap="round" stroke-linejoin="round"/>
<path d="M536.809 373.246C536.809 373.246 521.307 401.459 481.118 426.235" stroke="#1D2C34" stroke-linecap="round" stroke-linejoin="round"/>
<path d="M572.725 280.481C572.725 280.481 604.548 282.802 594.547 313.248" stroke="#1D2C34" stroke-linecap="round" stroke-linejoin="round"/>
<path d="M34.3172 1514.64C34.3172 1514.64 121.741 1587.9 167.339 1599.77C212.938 1611.65 199.936 1645.4 199.936 1645.4H93.5543L48.0922 1635.75V1645.66H19.8603C19.8603 1645.66 -5.23492 1633.03 0.993382 1569.77C1.22069 1565.89 34.3172 1514.64 34.3172 1514.64Z" fill="#1D2C34"/>
<path d="M979.929 1536.96C979.929 1536.96 1053.71 1587.9 1099.31 1599.77C1144.91 1611.65 1131.91 1645.4 1131.91 1645.4H1025.53L980.065 1635.75V1645.66H951.833C951.833 1645.66 926.738 1633.03 932.966 1569.77C933.33 1565.88 933.83 1561.81 934.467 1557.59C945.15 1483.97 979.929 1536.96 979.929 1536.96Z" fill="#1D2C34"/>
<path d="M97.4186 1572.36C97.4186 1572.36 371.464 1354.82 387.103 1326.57C402.742 1298.31 433.793 1039.57 433.793 1039.57C437.793 1042.33 694.654 1221.39 706.565 1238.76C707.383 1239.96 709.065 1242.55 711.52 1246.39C745.526 1299.29 924.874 1585.67 924.874 1585.67C939.726 1586.12 954.5 1583.4 968.17 1577.68C981.839 1571.96 994.074 1563.38 1004.02 1552.54L819.266 1161.53L548.493 901.534L544.447 897.606L518.625 796.492L286.314 768.591C286.314 768.591 266.31 840.956 255.627 897.695C255.154 901.277 254.926 904.886 254.945 908.498C253.763 972.157 272.311 1257.82 262.673 1281.79C252.308 1307.73 31.2259 1511.43 31.2259 1511.43C28.8618 1557.54 97.4186 1572.36 97.4186 1572.36Z" fill="#1D2C34"/>
<path opacity="0.3" d="M433.793 1039.57C437.793 1042.33 694.654 1221.39 706.565 1238.76C707.383 1239.96 709.065 1242.55 711.52 1246.39C721.431 1182.15 536.764 1046.13 536.764 1046.13L574.225 1027.11L500.485 1016.44C526.035 1004.83 517.579 973.184 517.579 973.184L433.793 1039.57Z" fill="#17232A" fill-opacity="0.7"/>
<path opacity="0.3" d="M418.563 936.087L406.379 953.943C478.573 938.274 523.717 916.623 548.494 901.623L544.447 897.695L518.625 796.492L286.314 768.591C286.314 768.591 266.31 840.956 255.627 897.695C255.154 901.277 254.926 904.886 254.945 908.498C316.455 931.98 418.563 936.087 418.563 936.087Z" fill="#17232A" fill-opacity="0.7"/>
<path d="M97.4186 1572.36C97.4186 1572.36 371.464 1354.82 387.103 1326.57C402.742 1298.31 433.793 1039.57 433.793 1039.57C437.793 1042.33 694.654 1221.39 706.565 1238.76C707.383 1239.96 709.065 1242.55 711.52 1246.39C745.526 1299.29 924.874 1585.67 924.874 1585.67C939.726 1586.12 954.5 1583.4 968.17 1577.68C981.839 1571.96 994.074 1563.38 1004.02 1552.54L819.266 1161.53L548.493 901.534L544.447 897.606L518.625 796.492L286.314 768.591C286.314 768.591 266.31 840.956 255.627 897.695C255.154 901.277 254.926 904.886 254.945 908.498C253.763 972.157 272.311 1257.82 262.673 1281.79C252.308 1307.73 31.2259 1511.43 31.2259 1511.43C28.8618 1557.54 97.4186 1572.36 97.4186 1572.36Z" stroke="#1D2C34" stroke-linecap="round" stroke-linejoin="round"/>
<path d="M229.94 569.758C242.943 641.586 295.133 729.218 295.133 729.218L282.858 766.761L249.944 867.16L429.11 919.569L461.706 859.437L491.757 915.194L552.767 891.177L547.766 865.91L536.218 807.43C536.491 804.126 536.719 800.644 536.991 797.073C544.493 688.415 543.72 465.431 440.384 323.872C440.384 323.872 286.995 344.854 230.85 513.286C225.758 528.956 226.167 548.687 229.94 569.758Z" fill="#1D2C34"/>
<path opacity="0.3" d="M295.133 729.218L282.858 766.761C313.409 794.484 350.233 828.009 353.734 832.206C358.28 837.607 483.846 856.535 547.902 865.91L536.355 807.43C536.628 804.126 536.855 800.644 537.128 797.073L277.221 586.677L229.94 569.758C242.943 641.586 295.133 729.218 295.133 729.218Z" fill="#17232A" fill-opacity="0.7"/>
<path d="M229.94 569.758C242.943 641.586 295.133 729.218 295.133 729.218L282.858 766.761L249.944 867.16L429.11 919.569L461.706 859.437L491.757 915.194L552.767 891.177L547.766 865.91L536.218 807.43C536.491 804.126 536.719 800.644 536.991 797.073C544.493 688.415 543.72 465.431 440.384 323.872C440.384 323.872 286.995 344.854 230.85 513.286C225.758 528.956 226.167 548.687 229.94 569.758Z" stroke="#1D2C34" stroke-linecap="round" stroke-linejoin="round"/>
<path d="M474.117 611.23C474.117 611.23 222.621 411.146 315.455 379.719C399.059 351.371 505.895 415.075 474.117 611.23Z" fill="#B3CAFF" stroke="#1D2C34" stroke-linecap="round" stroke-linejoin="round"/>
<path d="M384.011 451.19L418.563 465.877C436.395 510.029 447.752 556.443 452.296 603.73L478.936 636.81L486.347 603.73C486.347 603.73 473.344 503.599 429.201 462.707L418.517 422.932L376.783 401.95L384.011 451.19Z" fill="#1D2C34"/>
<path d="M471.481 598.552C471.481 598.552 273.039 462.216 318.819 370.88C318.819 370.88 264.492 369.496 287.45 500.34L353.734 519.313L335.231 555.696C335.231 555.696 409.879 570.517 478.936 636.72L505.895 480.966L486.392 466.814L497.849 442.887C497.849 442.887 429.246 367.933 363.599 374.228C363.599 374.228 441.794 406.147 462.07 466.904C482.346 527.661 471.481 598.552 471.481 598.552Z" fill="#2E3337" stroke="#1D2C34" stroke-linecap="round" stroke-linejoin="round"/>
<path d="M357.78 366.282C357.78 366.282 418.744 384.361 445.976 443.378L413.198 431.458L409.879 441.413L393.468 448.065V481.055C393.468 481.055 299.588 439.315 299.406 405.477C299.361 395.879 322.683 350.791 357.78 366.282Z" fill="#B3CAFF" stroke="#1D2C34" stroke-linecap="round" stroke-linejoin="round"/>
<path d="M298.042 315.569C321.865 353.112 306.089 399.049 306.089 399.049C306.089 399.049 377.237 451.101 399.514 436.637C398.789 421.751 399.139 406.833 400.56 391.995C401.671 379.267 403.615 366.622 406.379 354.139C406.379 354.139 398.832 349.675 387.694 343.738C352.188 324.14 279.858 286.998 298.042 315.569Z" fill="#FABDB4" stroke="#1D2C34" stroke-linecap="round" stroke-linejoin="round"/>
<path d="M758.119 939.345C755.823 937.552 753.734 935.516 751.891 933.274C750.503 931.637 749.327 929.838 748.39 927.917C746.357 924.447 743.932 921.212 741.162 918.275L737.797 914.614C733.751 910.15 729.842 906.355 728.478 905.016L727.978 904.48C724.295 901.98 721.249 899.793 718.885 897.739C712.501 893.071 707.279 887.042 703.61 880.106C698.7 871.178 712.702 847.92 720.294 839.036C722.698 836.391 725.621 834.25 728.887 832.741C733.168 830.626 737.777 829.223 742.525 828.59C747.425 827.899 752.401 827.899 757.301 828.59C761.697 829.192 766.138 829.431 770.576 829.304C773.576 829.304 776.577 829.036 779.35 828.768C785.137 828.235 790.889 827.385 796.58 826.224C797.388 826.997 798 827.944 798.368 828.991C798.736 830.038 798.849 831.155 798.699 832.253C798.549 833.35 798.139 834.398 797.503 835.312C796.866 836.227 796.021 836.982 795.034 837.518C792.885 838.626 790.59 839.437 788.215 839.929C784.123 840.822 779.713 841.223 776.304 841.759C774.232 841.842 772.228 842.509 770.53 843.679C769.977 844.266 769.489 844.909 769.075 845.598V845.598L768.621 846.357C767.816 847.892 767.381 849.587 767.348 851.312C767.35 852.056 767.473 852.794 767.712 853.5C767.672 853.691 767.672 853.889 767.712 854.08C767.949 854.589 768.222 855.082 768.53 855.553C770.248 858.017 772.332 860.214 774.713 862.071C778.192 864.874 781.885 867.411 785.76 869.66V869.66L790.306 872.071C793.893 874.027 797.58 875.8 801.353 877.383C804.036 878.499 806.945 879.749 809.764 881.088C812.43 882.283 815.026 883.624 817.538 885.106C824.539 889.168 829.04 893.588 825.221 897.293C821.402 900.998 819.038 899.391 812.583 896.445C810.355 895.418 807.673 894.213 804.354 892.874C798.509 890.65 792.507 888.845 786.396 887.472L784.032 886.936L782.305 889.615C781.714 889.615 782.305 890.463 784.26 892.025C788.967 896.191 793.931 900.068 799.126 903.632C801.49 905.195 804.081 906.846 806.672 908.364C809.264 909.882 811.219 911.177 813.81 912.427C825.721 918.81 817.538 924.703 812.855 924.748C808.206 923.679 803.828 921.689 799.989 918.9L792.17 914.212L788.397 912.159C783.396 909.525 778.213 906.713 774.758 904.793L773.394 904.034L769.939 906.534L771.121 908.141C774.587 912.744 778.467 917.032 782.714 920.953C785.624 923.632 788.078 925.417 789.942 927.114C793.443 930.105 794.989 931.846 793.716 935.104C792.443 938.363 787.215 937.828 781.896 935.104C777.716 932.933 773.899 930.148 770.576 926.846V926.846C769.988 926.242 769.442 925.6 768.939 924.926C766.178 921.689 762.982 918.835 759.437 916.444L757.346 914.927L753.936 915.462C754.482 916.578 755.073 917.65 755.664 918.632C757.551 921.931 759.63 925.121 761.892 928.185V928.185C763.819 930.618 765.61 933.151 767.257 935.774C767.87 936.519 768.223 937.437 768.264 938.393C768.305 939.35 768.031 940.294 767.484 941.087C765.711 943.81 761.892 942.158 758.119 939.345Z" fill="#FABDB4" stroke="#1D2C34" stroke-linecap="round" stroke-linejoin="round"/>
<path d="M731.115 838.455L666.513 816.894L649.828 857.875L704.337 875.642" fill="#FABDB4"/>
<path d="M731.115 838.455L666.513 816.894L649.828 857.875L704.337 875.642" stroke="#1D2C34" stroke-linecap="round" stroke-linejoin="round"/>
<path d="M661.557 807.43L708.111 824.884L688.244 874.481L644.1 864.66L661.557 807.43Z" fill="#B3CAFF" stroke="#1D2C34" stroke-linecap="round" stroke-linejoin="round"/>
<path d="M236.76 519.402C236.76 519.402 267.447 507.215 306.68 528.866C330.684 542.259 450.386 725.691 445.976 717.298L691.471 811.447L666.331 880.508C666.331 880.508 408.424 816.358 387.557 800.778C366.69 785.198 257.218 671.318 232.577 575.829" fill="#1D2C34"/>
<path d="M236.76 519.402C236.76 519.402 267.447 507.215 306.68 528.866C330.684 542.259 450.386 725.691 445.976 717.298L691.471 811.447L666.331 880.508C666.331 880.508 408.424 816.358 387.557 800.778C366.69 785.198 257.218 671.318 232.577 575.829" stroke="#1D2C34" stroke-linecap="round" stroke-linejoin="round"/>
<path d="M500.531 985.639C500.531 985.639 426.473 1025.82 387.376 1062.2" stroke="#1D2C34" stroke-linecap="round" stroke-linejoin="round"/>
<path d="M294.906 885.776C295.497 886.758 297.906 925.953 273.902 942.336" stroke="#1D2C34" stroke-linecap="round" stroke-linejoin="round"/>
<path d="M273.902 875.642C273.902 875.642 260.718 883.231 269.356 998.585C277.994 1113.94 281.767 1276.48 281.767 1276.48C278.858 1286.57 273.562 1295.84 266.31 1303.53C254.672 1315.32 67.6409 1494.55 67.6409 1494.55" stroke="#1D2C34" stroke-linecap="round" stroke-linejoin="round"/>
<path d="M443.931 1024.16C443.931 1024.16 504.532 1035.33 553.04 1028.27" stroke="#1D2C34" stroke-linecap="round" stroke-linejoin="round"/>
<path d="M461.843 1030.37C461.843 1030.37 700.746 1224.65 748.708 1241.12" stroke="#1D2C34" stroke-linecap="round" stroke-linejoin="round"/>
<path d="M731.114 1232.42L891.414 1500.18" stroke="#1D2C34" stroke-linecap="round" stroke-linejoin="round"/>
<path d="M445.431 889.793C445.431 889.793 455.569 946.801 461.888 956.22C468.207 965.639 453.66 998.585 453.66 998.585" stroke="#1D2C34" stroke-linecap="round" stroke-linejoin="round"/>
<path d="M461.843 889.793C461.843 889.793 469.344 924.435 471.753 932.694C474.163 940.953 461.843 944.211 461.843 944.211" stroke="#1D2C34" stroke-linecap="round" stroke-linejoin="round"/>
<path d="M486.347 650.113C486.347 650.113 494.484 699.576 492.075 723.102Z" fill="#2E3337"/>
<path d="M486.347 650.113C486.347 650.113 494.484 699.576 492.075 723.102" stroke="#1D2C34" stroke-linecap="round" stroke-linejoin="round"/>
<path d="M273.902 630.113C273.902 630.113 316.046 660.693 353.734 659.532" stroke="#1D2C34" stroke-linecap="round" stroke-linejoin="round"/>
<path d="M445.976 717.298C445.976 717.298 428.882 730.155 418.699 723.102" stroke="#1D2C34" stroke-linecap="round" stroke-linejoin="round"/>
<path d="M295.133 729.218C295.133 729.218 318.273 741.94 323.092 754.886" stroke="#1D2C34" stroke-linecap="round" stroke-linejoin="round"/>
<path d="M335.231 351.952C335.231 351.952 364.235 381.995 400.56 391.772C401.671 379.044 403.615 366.399 406.379 353.916C406.379 353.916 398.832 349.452 387.694 343.514L335.231 351.952Z" fill="#1D2C34"/>
<path d="M325.866 358.648C355.189 374.63 388.421 380.254 419.017 366.282C429.883 361.371 435.156 297.31 419.017 240.75C393.059 149.368 317.819 146.333 257.218 200.572C225.167 229.321 244.852 286.463 284.995 327.31" fill="#FABDB4"/>
<path d="M325.866 358.648C355.189 374.63 388.421 380.254 419.017 366.282C429.883 361.371 435.156 297.31 419.017 240.75C393.059 149.368 317.819 146.333 257.218 200.572C225.167 229.321 244.852 286.463 284.995 327.31" stroke="#1D2C34" stroke-linecap="round" stroke-linejoin="round"/>
<path d="M372.237 246.419C364.346 245.794 356.463 247.713 349.784 251.887C343.105 256.06 337.995 262.259 335.231 269.543" stroke="#1D2C34" stroke-linecap="round" stroke-linejoin="round"/>
<path d="M399.514 234.902C399.514 234.902 403.424 223.83 413.153 223.607" stroke="#1D2C34" stroke-linecap="round" stroke-linejoin="round"/>
<path d="M414.38 299.096C414.38 299.096 425.973 287.266 422.336 280.57C418.699 273.874 415.017 277.847 406.379 271.909C403.762 270.139 401.552 267.85 399.892 265.19C398.232 262.529 397.159 259.557 396.741 256.463" fill="#FABDB4"/>
<path d="M414.38 299.096C414.38 299.096 425.973 287.266 422.336 280.57C418.699 273.874 415.017 277.847 406.379 271.909C403.762 270.139 401.552 267.85 399.892 265.19C398.232 262.529 397.159 259.557 396.741 256.463" stroke="#1D2C34" stroke-linecap="round" stroke-linejoin="round"/>
<path d="M360.371 279.9C361.553 282.847 363.872 284.722 365.554 284.097C367.236 283.472 367.691 280.525 366.509 277.534C365.327 274.543 363.008 272.713 361.326 273.383C359.644 274.052 359.053 276.954 360.371 279.9Z" fill="#1D2C34"/>
<path d="M403.288 259.053C404.47 262.044 406.788 263.919 408.47 263.249C410.152 262.579 410.607 259.678 409.425 256.731C408.243 253.785 405.924 251.91 404.242 252.535C402.56 253.16 402.105 256.329 403.288 259.053Z" fill="#1D2C34"/>
<path d="M418.563 313.203C418.563 313.203 394.65 324.006 376.829 324.229C376.829 324.229 385.921 343.157 401.469 341.461C417.017 339.765 413.607 318.828 413.607 318.828" stroke="#1D2C34" stroke-linecap="round" stroke-linejoin="round"/>
<path d="M307.817 216.152C307.817 216.152 333.458 195.929 389.649 186.644C389.649 186.644 389.376 152.895 376.692 140.708C364.008 128.521 353.597 153.654 353.597 153.654C353.597 153.654 321.774 144.993 265.264 183.073C208.755 221.152 235.85 309.274 307.271 346.729L307.681 331.818C307.681 331.818 306.953 300.926 318.682 295.168C318.682 295.168 309.908 272.847 319.41 256.374C328.911 239.901 307.817 216.152 307.817 216.152Z" fill="#1D2C34"/>
<path d="M318.819 306.016C318.819 306.016 298.316 281.597 281.495 290.212C264.674 298.828 301.998 351.238 318.819 341.595" fill="#FABDB4"/>
<path d="M318.819 306.016C318.819 306.016 298.316 281.597 281.495 290.212C264.674 298.828 301.998 351.238 318.819 341.595" stroke="#1D2C34" stroke-linecap="round" stroke-linejoin="round"/>
</svg>
