<svg width="1440" height="4735" viewBox="0 0 1440 4735" fill="none" xmlns="http://www.w3.org/2000/svg">
<g clip-path="url(#clip0)">
<rect width="1440" height="4735" fill="#F3F4FB"/>
<g opacity="0.8">
<path opacity="0.4" d="M1449.45 367.532C1544.42 367.532 1621.4 291.415 1621.4 197.52C1621.4 103.625 1544.42 27.5075 1449.45 27.5075C1354.48 27.5075 1277.49 103.625 1277.49 197.52C1277.49 291.415 1354.48 367.532 1449.45 367.532Z" fill="#2D9CDB"/>
<path opacity="0.6" d="M197.814 384.29C208.726 384.29 217.573 375.543 217.573 364.754C217.573 353.965 208.726 345.219 197.814 345.219C186.901 345.219 178.055 353.965 178.055 364.754C178.055 375.543 186.901 384.29 197.814 384.29Z" fill="#2D9CDB"/>
<path opacity="0.6" d="M607.931 573.648C618.609 573.648 627.265 565.09 627.265 554.533C627.265 543.976 618.609 535.418 607.931 535.418C597.254 535.418 588.598 543.976 588.598 554.533C588.598 565.09 597.254 573.648 607.931 573.648Z" fill="#2D9CDB"/>
<path opacity="0.6" d="M933.565 867.971C949.582 867.971 962.565 855.134 962.565 839.298C962.565 823.463 949.582 810.626 933.565 810.626C917.549 810.626 904.565 823.463 904.565 839.298C904.565 855.134 917.549 867.971 933.565 867.971Z" fill="#2D9CDB"/>
<path d="M1077.81 303.132C1082.08 303.132 1085.54 299.708 1085.54 295.486C1085.54 291.263 1082.08 287.84 1077.81 287.84C1073.53 287.84 1070.07 291.263 1070.07 295.486C1070.07 299.708 1073.53 303.132 1077.81 303.132Z" fill="#2F80ED"/>
<path d="M862.645 482.278C867.984 482.278 872.312 477.999 872.312 472.721C872.312 467.442 867.984 463.164 862.645 463.164C857.307 463.164 852.979 467.442 852.979 472.721C852.979 477.999 857.307 482.278 862.645 482.278Z" fill="#FFECEA"/>
<path d="M518.735 442.964C524.074 442.964 528.402 438.685 528.402 433.406C528.402 428.128 524.074 423.849 518.735 423.849C513.397 423.849 509.069 428.128 509.069 433.406C509.069 438.685 513.397 442.964 518.735 442.964Z" fill="#2F80ED"/>
<path d="M1103.6 620.841C1107.87 620.841 1111.33 617.418 1111.33 613.195C1111.33 608.972 1107.87 605.549 1103.6 605.549C1099.33 605.549 1095.87 608.972 1095.87 613.195C1095.87 617.418 1099.33 620.841 1103.6 620.841Z" fill="#2F80ED"/>
<path d="M157.533 881.66C161.804 881.66 165.267 878.237 165.267 874.014C165.267 869.791 161.804 866.368 157.533 866.368C153.262 866.368 149.8 869.791 149.8 874.014C149.8 878.237 153.262 881.66 157.533 881.66Z" fill="#2F80ED"/>
<path d="M1216.23 75.323C1218.61 75.323 1220.53 73.4201 1220.53 71.0727C1220.53 68.7253 1218.61 66.8224 1216.23 66.8224C1213.86 66.8224 1211.94 68.7253 1211.94 71.0727C1211.94 73.4201 1213.86 75.323 1216.23 75.323Z" fill="#2F80ED"/>
<path d="M209.216 490.779C214.555 490.779 218.883 486.5 218.883 481.222C218.883 475.943 214.555 471.664 209.216 471.664C203.877 471.664 199.55 475.943 199.55 481.222C199.55 486.5 203.877 490.779 209.216 490.779Z" fill="#2F80ED"/>
<path opacity="0.4" d="M663.609 265.402C659.487 256.663 661.738 246.425 669.885 241.25C677.357 236.503 688.162 230.334 702.716 223.624C734.921 208.777 986.652 102.41 986.652 102.41L991.157 111.962C991.157 111.962 746.935 234.249 715.016 248.965C687.949 261.444 670.224 265.435 665.461 266.359C664.695 266.508 663.941 266.107 663.609 265.402V265.402Z" fill="url(#paint0_linear)"/>
<path opacity="0.4" d="M213.712 192.746C211.219 187.46 212.581 181.267 217.509 178.136C222.029 175.265 228.565 171.533 237.368 167.475C256.848 158.493 409.12 94.1526 409.12 94.1526L411.845 99.9307C411.845 99.9307 264.116 173.902 244.808 182.803C228.435 190.352 217.714 192.765 214.833 193.325C214.369 193.415 213.913 193.172 213.712 192.746V192.746Z" fill="url(#paint1_linear)"/>
<path opacity="0.4391" d="M1234.76 738.068C1226.8 721.201 1231.15 701.442 1246.87 691.454C1261.29 682.292 1282.15 670.386 1310.23 657.436C1372.39 628.78 1858.24 423.49 1858.24 423.49L1866.93 441.926C1866.93 441.926 1395.58 677.943 1333.97 706.345C1281.73 730.429 1247.52 738.13 1238.33 739.915C1236.85 740.203 1235.4 739.428 1234.76 738.068V738.068Z" fill="url(#paint2_linear)"/>
<path opacity="0.3" d="M167.775 1088.69C310.227 1088.69 425.707 974.514 425.707 833.671C425.707 692.828 310.227 578.652 167.775 578.652C25.3226 578.652 -90.1578 692.828 -90.1578 833.671C-90.1578 974.514 25.3226 1088.69 167.775 1088.69Z" fill="#2D9CDB"/>
<path opacity="0.239095" d="M827.933 659.271C823.812 650.532 826.063 640.294 834.209 635.119C841.682 630.372 852.487 624.203 867.041 617.493C899.245 602.645 1150.98 496.278 1150.98 496.278L1155.48 505.831C1155.48 505.831 911.259 628.118 879.34 642.834C852.273 655.313 834.549 659.303 829.786 660.228C829.02 660.377 828.266 659.976 827.933 659.271V659.271Z" fill="#2F80ED"/>
<path opacity="0.5" d="M889.8 686.002C885.678 677.262 887.929 667.024 896.076 661.849C903.549 657.102 914.354 650.933 928.907 644.224C961.112 629.376 1212.84 523.009 1212.84 523.009L1217.35 532.561C1217.35 532.561 973.126 654.849 941.207 669.565C914.14 682.044 896.416 686.034 891.653 686.959C890.886 687.108 890.132 686.706 889.8 686.002V686.002Z" fill="#2F80ED"/>
</g>
<g opacity="0.8">
<path opacity="0.4" d="M966.03 1399.58C1057.83 1375.25 1112.74 1281.94 1088.68 1191.18C1064.62 1100.42 970.698 1046.58 878.901 1070.91C787.104 1095.25 732.192 1188.55 756.252 1279.31C780.312 1370.07 874.232 1423.92 966.03 1399.58Z" fill="#2D9CDB"/>
<path opacity="0.6" d="M205.425 1814.45C215.746 1811.71 221.92 1801.22 219.215 1791.02C216.51 1780.81 205.95 1774.76 195.629 1777.5C185.308 1780.23 179.134 1790.72 181.839 1800.93C184.544 1811.13 195.104 1817.19 205.425 1814.45Z" fill="#2D9CDB"/>
<path opacity="0.6" d="M595.605 2015.5C611.087 2011.4 620.347 1995.66 616.29 1980.36C612.232 1965.05 596.392 1955.97 580.911 1960.07C565.429 1964.18 556.169 1979.91 560.226 1995.22C564.284 2010.53 580.124 2019.61 595.605 2015.5Z" fill="#2D9CDB"/>
<path d="M590.294 1432.56C594.422 1431.47 596.891 1427.27 595.809 1423.19C594.727 1419.11 590.503 1416.69 586.375 1417.78C582.247 1418.88 579.777 1423.07 580.859 1427.15C581.941 1431.24 586.165 1433.66 590.294 1432.56Z" fill="#2F80ED"/>
<path d="M428.222 1660.86C433.382 1659.49 436.469 1654.25 435.117 1649.15C433.764 1644.04 428.484 1641.02 423.324 1642.38C418.163 1643.75 415.076 1649 416.429 1654.1C417.781 1659.2 423.061 1662.23 428.222 1660.86Z" fill="#FFECEA"/>
<path d="M85.72 1710.98C90.8805 1709.62 93.9675 1704.37 92.6149 1699.27C91.2624 1694.17 85.9825 1691.14 80.822 1692.51C75.6614 1693.88 72.5745 1699.12 73.9271 1704.22C75.2796 1709.32 80.5595 1712.35 85.72 1710.98Z" fill="#2F80ED"/>
<path d="M696.636 1733.06C700.765 1731.96 703.234 1727.76 702.152 1723.68C701.07 1719.6 696.846 1717.18 692.718 1718.27C688.589 1719.37 686.12 1723.56 687.202 1727.65C688.284 1731.73 692.508 1734.15 696.636 1733.06Z" fill="#2F80ED"/>
<path d="M665.726 1176.89C668.021 1176.28 669.394 1173.95 668.792 1171.68C668.191 1169.41 665.843 1168.06 663.548 1168.67C661.253 1169.28 659.88 1171.61 660.482 1173.88C661.083 1176.15 663.431 1177.5 665.726 1176.89Z" fill="#2F80ED"/>
<path opacity="0.4" d="M180.258 1502.23C174.034 1494.84 173.587 1484.36 180.135 1477.27C186.142 1470.77 195.006 1462.04 207.354 1451.82C234.679 1429.22 450.75 1261.9 450.75 1261.9L457.552 1269.98C457.552 1269.98 252.819 1450.76 225.736 1473.17C202.771 1492.17 186.661 1500.56 182.294 1502.68C181.591 1503.02 180.759 1502.82 180.258 1502.23V1502.23Z" fill="url(#paint3_linear)"/>
<path opacity="0.4391" d="M853.453 1812.76C841.442 1798.5 840.578 1778.28 853.217 1764.6C864.81 1752.05 881.917 1735.19 905.749 1715.48C958.487 1671.85 1375.51 1348.92 1375.51 1348.92L1388.64 1364.52C1388.64 1364.52 993.498 1713.43 941.228 1756.67C896.904 1793.34 865.811 1809.55 857.383 1813.63C856.026 1814.29 854.422 1813.91 853.453 1812.76V1812.76Z" fill="url(#paint4_linear)"/>
<path opacity="0.3" d="M-88.0603 2425.08C49.6358 2388.58 132.004 2248.62 95.914 2112.48C59.8241 1976.34 -81.0573 1895.57 -218.753 1932.07C-356.45 1968.58 -438.818 2108.53 -402.728 2244.67C-366.638 2380.81 -225.756 2461.58 -88.0603 2425.08Z" fill="#2D9CDB"/>
<path opacity="0.239095" d="M440.022 1840.84C433.798 1833.45 433.351 1822.98 439.9 1815.89C445.906 1809.38 454.77 1800.65 467.118 1790.44C494.443 1767.83 710.514 1600.51 710.514 1600.51L717.317 1608.59C717.317 1608.59 512.583 1789.38 485.501 1811.78C462.535 1830.78 446.425 1839.18 442.058 1841.29C441.355 1841.63 440.524 1841.44 440.022 1840.84V1840.84Z" fill="#2F80ED"/>
<path opacity="0.5" d="M506.673 1850.82C500.449 1843.43 500.002 1832.96 506.55 1825.87C512.557 1819.37 521.42 1810.64 533.769 1800.42C561.094 1777.82 777.165 1610.5 777.165 1610.5L783.967 1618.58C783.967 1618.58 579.234 1799.36 552.151 1821.76C529.186 1840.76 513.076 1849.16 508.709 1851.28C508.006 1851.62 507.174 1851.42 506.673 1850.82V1850.82Z" fill="#2F80ED"/>
</g>
<g opacity="0.8">
<path opacity="0.4" d="M1462.03 2356.58C1553.83 2332.25 1608.74 2238.94 1584.68 2148.18C1560.62 2057.42 1466.7 2003.58 1374.9 2027.91C1283.1 2052.25 1228.19 2145.55 1252.25 2236.31C1276.31 2327.07 1370.23 2380.92 1462.03 2356.58Z" fill="#2D9CDB"/>
<path opacity="0.6" d="M256.479 2693.5C267.027 2690.71 273.336 2679.99 270.572 2669.56C267.807 2659.13 257.015 2652.94 246.467 2655.74C235.919 2658.53 229.609 2669.25 232.374 2679.68C235.138 2690.11 245.93 2696.3 256.479 2693.5Z" fill="#2D9CDB"/>
<path opacity="0.6" d="M701.425 2771.45C711.746 2768.71 717.92 2758.22 715.215 2748.02C712.51 2737.81 701.95 2731.76 691.629 2734.5C681.308 2737.23 675.134 2747.72 677.839 2757.93C680.544 2768.13 691.104 2774.19 701.425 2771.45Z" fill="#2D9CDB"/>
<path opacity="0.6" d="M1091.61 2972.5C1107.09 2968.4 1116.35 2952.66 1112.29 2937.36C1108.23 2922.05 1092.39 2912.97 1076.91 2917.07C1061.43 2921.18 1052.17 2936.91 1056.23 2952.22C1060.28 2967.53 1076.12 2976.61 1091.61 2972.5Z" fill="#2D9CDB"/>
<path d="M1086.29 2389.56C1090.42 2388.47 1092.89 2384.27 1091.81 2380.19C1090.73 2376.11 1086.5 2373.69 1082.38 2374.78C1078.25 2375.88 1075.78 2380.07 1076.86 2384.15C1077.94 2388.24 1082.17 2390.66 1086.29 2389.56Z" fill="#2F80ED"/>
<path d="M924.222 2617.86C929.382 2616.49 932.469 2611.25 931.117 2606.15C929.764 2601.04 924.484 2598.02 919.324 2599.38C914.163 2600.75 911.076 2606 912.429 2611.1C913.781 2616.2 919.061 2619.23 924.222 2617.86Z" fill="#FFECEA"/>
<path d="M581.72 2667.98C586.881 2666.62 589.967 2661.37 588.615 2656.27C587.262 2651.17 581.982 2648.14 576.822 2649.51C571.661 2650.87 568.575 2656.12 569.927 2661.22C571.28 2666.32 576.56 2669.35 581.72 2667.98Z" fill="#2F80ED"/>
<path d="M1192.64 2690.06C1196.76 2688.96 1199.23 2684.76 1198.15 2680.68C1197.07 2676.6 1192.85 2674.18 1188.72 2675.27C1184.59 2676.37 1182.12 2680.56 1183.2 2684.65C1184.28 2688.73 1188.51 2691.15 1192.64 2690.06Z" fill="#2F80ED"/>
<path d="M344.99 3184.59C349.119 3183.49 351.588 3179.3 350.506 3175.22C349.424 3171.13 345.2 3168.71 341.072 3169.81C336.944 3170.9 334.474 3175.1 335.556 3179.18C336.638 3183.26 340.862 3185.68 344.99 3184.59Z" fill="#2F80ED"/>
<path d="M1161.73 2133.89C1164.02 2133.28 1165.39 2130.95 1164.79 2128.68C1164.19 2126.41 1161.84 2125.06 1159.55 2125.67C1157.25 2126.28 1155.88 2128.61 1156.48 2130.88C1157.08 2133.15 1159.43 2134.5 1161.73 2133.89Z" fill="#2F80ED"/>
<path d="M294.787 2793.51C299.948 2792.15 303.035 2786.9 301.682 2781.8C300.33 2776.7 295.05 2773.67 289.889 2775.04C284.729 2776.41 281.642 2781.65 282.994 2786.75C284.347 2791.86 289.627 2794.88 294.787 2793.51Z" fill="#2F80ED"/>
<path opacity="0.4" d="M676.258 2459.23C670.034 2451.84 669.587 2441.36 676.135 2434.27C682.142 2427.77 691.006 2419.04 703.354 2408.82C730.679 2386.22 946.75 2218.9 946.75 2218.9L953.553 2226.98C953.553 2226.98 748.819 2407.76 721.736 2430.17C698.771 2449.17 682.661 2457.56 678.294 2459.68C677.591 2460.02 676.759 2459.82 676.258 2459.23V2459.23Z" fill="url(#paint5_linear)"/>
<path opacity="0.4" d="M222.764 2504.28C219 2499.81 218.729 2493.47 222.69 2489.19C226.324 2485.25 231.685 2479.97 239.155 2473.79C255.684 2460.12 386.384 2358.91 386.384 2358.91L390.499 2363.79C390.499 2363.79 266.656 2473.15 250.274 2486.7C236.383 2498.19 226.638 2503.27 223.996 2504.55C223.571 2504.76 223.068 2504.64 222.764 2504.28V2504.28Z" fill="url(#paint6_linear)"/>
<path opacity="0.4391" d="M1349.45 2769.76C1337.44 2755.49 1336.58 2735.28 1349.22 2721.6C1360.81 2709.05 1377.92 2692.19 1401.75 2672.48C1454.49 2628.85 1871.51 2305.92 1871.51 2305.92L1884.64 2321.52C1884.64 2321.52 1489.5 2670.43 1437.23 2713.67C1392.9 2750.34 1361.81 2766.55 1353.38 2770.63C1352.03 2771.29 1350.42 2770.91 1349.45 2769.76V2769.76Z" fill="url(#paint7_linear)"/>
<path opacity="0.3" d="M407.94 3382.08C545.636 3345.58 628.004 3205.62 591.914 3069.48C555.824 2933.34 414.943 2852.57 277.247 2889.07C139.55 2925.58 57.1823 3065.53 93.2722 3201.67C129.362 3337.81 270.244 3418.58 407.94 3382.08Z" fill="#2D9CDB"/>
<path opacity="0.239095" d="M936.022 2797.84C929.798 2790.45 929.351 2779.98 935.9 2772.89C941.906 2766.38 950.77 2757.65 963.118 2747.44C990.443 2724.83 1206.51 2557.51 1206.51 2557.51L1213.32 2565.59C1213.32 2565.59 1008.58 2746.38 981.501 2768.78C958.535 2787.78 942.425 2796.18 938.058 2798.29C937.355 2798.63 936.524 2798.44 936.022 2797.84V2797.84Z" fill="#2F80ED"/>
<path opacity="0.5" d="M1002.67 2807.82C996.449 2800.43 996.002 2789.96 1002.55 2782.87C1008.56 2776.37 1017.42 2767.64 1029.77 2757.42C1057.09 2734.82 1273.16 2567.5 1273.16 2567.5L1279.97 2575.58C1279.97 2575.58 1075.23 2756.36 1048.15 2778.76C1025.19 2797.76 1009.08 2806.16 1004.71 2808.28C1004.01 2808.62 1003.17 2808.42 1002.67 2807.82V2807.82Z" fill="#2F80ED"/>
<g opacity="0.8">
<path opacity="0.4" d="M1381.03 3712.58C1472.83 3688.25 1527.74 3594.94 1503.68 3504.18C1479.62 3413.42 1385.7 3359.58 1293.9 3383.91C1202.1 3408.25 1147.19 3501.55 1171.25 3592.31C1195.31 3683.07 1289.23 3736.92 1381.03 3712.58Z" fill="#2D9CDB"/>
<path opacity="0.6" d="M175.479 4049.5C186.027 4046.71 192.336 4035.99 189.572 4025.56C186.807 4015.13 176.015 4008.94 165.467 4011.74C154.919 4014.53 148.609 4025.25 151.374 4035.68C154.138 4046.11 164.93 4052.3 175.479 4049.5Z" fill="#2D9CDB"/>
<path opacity="0.6" d="M620.425 4127.45C630.746 4124.71 636.92 4114.22 634.215 4104.02C631.51 4093.81 620.95 4087.76 610.629 4090.5C600.308 4093.23 594.134 4103.72 596.839 4113.93C599.544 4124.13 610.104 4130.19 620.425 4127.45Z" fill="#2D9CDB"/>
<path opacity="0.6" d="M1010.61 4328.5C1026.09 4324.4 1035.35 4308.66 1031.29 4293.36C1027.23 4278.05 1011.39 4268.97 995.911 4273.07C980.429 4277.18 971.169 4292.91 975.226 4308.22C979.284 4323.53 995.124 4332.61 1010.61 4328.5Z" fill="#2D9CDB"/>
<path d="M1005.29 3745.56C1009.42 3744.47 1011.89 3740.27 1010.81 3736.19C1009.73 3732.11 1005.5 3729.69 1001.38 3730.78C997.247 3731.88 994.777 3736.07 995.859 3740.15C996.941 3744.24 1001.17 3746.66 1005.29 3745.56Z" fill="#2F80ED"/>
<path d="M843.222 3973.86C848.382 3972.49 851.469 3967.25 850.117 3962.15C848.764 3957.04 843.484 3954.02 838.324 3955.38C833.163 3956.75 830.076 3962 831.429 3967.1C832.781 3972.2 838.061 3975.23 843.222 3973.86Z" fill="#FFECEA"/>
<path d="M500.72 4023.98C505.881 4022.62 508.967 4017.37 507.615 4012.27C506.262 4007.17 500.982 4004.14 495.822 4005.51C490.661 4006.87 487.575 4012.12 488.927 4017.22C490.28 4022.32 495.56 4025.35 500.72 4023.98Z" fill="#2F80ED"/>
<path d="M1111.64 4046.06C1115.76 4044.96 1118.23 4040.76 1117.15 4036.68C1116.07 4032.6 1111.85 4030.18 1107.72 4031.27C1103.59 4032.37 1101.12 4036.56 1102.2 4040.65C1103.28 4044.73 1107.51 4047.15 1111.64 4046.06Z" fill="#2F80ED"/>
<path d="M263.99 4540.59C268.119 4539.49 270.588 4535.3 269.506 4531.22C268.424 4527.13 264.2 4524.71 260.072 4525.81C255.944 4526.9 253.474 4531.1 254.556 4535.18C255.638 4539.26 259.862 4541.68 263.99 4540.59Z" fill="#2F80ED"/>
<path d="M1080.73 3489.89C1083.02 3489.28 1084.39 3486.95 1083.79 3484.68C1083.19 3482.41 1080.84 3481.06 1078.55 3481.67C1076.25 3482.28 1074.88 3484.61 1075.48 3486.88C1076.08 3489.15 1078.43 3490.5 1080.73 3489.89Z" fill="#2F80ED"/>
<path d="M213.787 4149.51C218.948 4148.15 222.035 4142.9 220.682 4137.8C219.33 4132.7 214.05 4129.67 208.889 4131.04C203.729 4132.41 200.642 4137.65 201.994 4142.75C203.347 4147.86 208.627 4150.88 213.787 4149.51Z" fill="#2F80ED"/>
<path opacity="0.4" d="M595.258 3815.23C589.034 3807.84 588.587 3797.36 595.135 3790.27C601.142 3783.77 610.006 3775.04 622.354 3764.82C649.679 3742.22 865.75 3574.9 865.75 3574.9L872.553 3582.98C872.553 3582.98 667.819 3763.76 640.736 3786.17C617.771 3805.17 601.661 3813.56 597.294 3815.68C596.591 3816.02 595.759 3815.82 595.258 3815.23V3815.23Z" fill="url(#paint8_linear)"/>
<path opacity="0.4" d="M141.764 3860.28C138 3855.81 137.729 3849.47 141.69 3845.19C145.324 3841.25 150.685 3835.97 158.155 3829.79C174.684 3816.12 305.384 3714.91 305.384 3714.91L309.499 3719.79C309.499 3719.79 185.656 3829.15 169.274 3842.7C155.383 3854.19 145.638 3859.27 142.996 3860.55C142.571 3860.76 142.068 3860.64 141.764 3860.28V3860.28Z" fill="url(#paint9_linear)"/>
<path opacity="0.4391" d="M1268.45 4125.76C1256.44 4111.49 1255.58 4091.28 1268.22 4077.6C1279.81 4065.05 1296.92 4048.19 1320.75 4028.48C1373.49 3984.85 1790.51 3661.92 1790.51 3661.92L1803.64 3677.52C1803.64 3677.52 1408.5 4026.43 1356.23 4069.67C1311.9 4106.34 1280.81 4122.55 1272.38 4126.63C1271.03 4127.29 1269.42 4126.91 1268.45 4125.76V4125.76Z" fill="url(#paint10_linear)"/>
<path opacity="0.3" d="M326.94 4738.08C464.636 4701.58 547.004 4561.62 510.914 4425.48C474.824 4289.34 333.943 4208.57 196.247 4245.07C58.5504 4281.58 -23.8177 4421.53 12.2722 4557.67C48.3622 4693.81 189.244 4774.58 326.94 4738.08Z" fill="#2D9CDB"/>
<path opacity="0.239095" d="M855.022 4153.84C848.798 4146.45 848.351 4135.98 854.9 4128.89C860.906 4122.38 869.77 4113.65 882.118 4103.44C909.443 4080.83 1125.51 3913.51 1125.51 3913.51L1132.32 3921.59C1132.32 3921.59 927.583 4102.38 900.501 4124.78C877.535 4143.78 861.425 4152.18 857.058 4154.29C856.355 4154.63 855.524 4154.44 855.022 4153.84V4153.84Z" fill="#2F80ED"/>
<path opacity="0.5" d="M921.673 4163.82C915.449 4156.43 915.002 4145.96 921.55 4138.87C927.557 4132.37 936.42 4123.64 948.769 4113.42C976.094 4090.82 1192.16 3923.5 1192.16 3923.5L1198.97 3931.58C1198.97 3931.58 994.234 4112.36 967.151 4134.76C944.186 4153.76 928.076 4162.16 923.709 4164.28C923.006 4164.62 922.174 4164.42 921.673 4163.82V4163.82Z" fill="#2F80ED"/>
</g>
</g>
</g>
<defs>
<linearGradient id="paint0_linear" x1="666.338" y1="271.189" x2="988.873" y2="119.07" gradientUnits="userSpaceOnUse">
<stop stop-color="white"/>
<stop offset="1" stop-color="white"/>
</linearGradient>
<linearGradient id="paint1_linear" x1="215.363" y1="196.246" x2="410.463" y2="104.23" gradientUnits="userSpaceOnUse">
<stop stop-color="white"/>
<stop offset="1" stop-color="white"/>
</linearGradient>
<linearGradient id="paint2_linear" x1="1240.02" y1="749.237" x2="1862.52" y2="455.643" gradientUnits="userSpaceOnUse">
<stop stop-color="white"/>
<stop offset="1" stop-color="white"/>
</linearGradient>
<linearGradient id="paint3_linear" x1="184.379" y1="1507.12" x2="457.166" y2="1277.43" gradientUnits="userSpaceOnUse">
<stop stop-color="white"/>
<stop offset="1" stop-color="white"/>
</linearGradient>
<linearGradient id="paint4_linear" x1="861.407" y1="1822.21" x2="1387.89" y2="1378.9" gradientUnits="userSpaceOnUse">
<stop stop-color="white"/>
<stop offset="1" stop-color="white"/>
</linearGradient>
<linearGradient id="paint5_linear" x1="680.379" y1="2464.12" x2="953.166" y2="2234.43" gradientUnits="userSpaceOnUse">
<stop stop-color="white"/>
<stop offset="1" stop-color="white"/>
</linearGradient>
<linearGradient id="paint6_linear" x1="225.257" y1="2507.24" x2="390.265" y2="2368.3" gradientUnits="userSpaceOnUse">
<stop stop-color="white"/>
<stop offset="1" stop-color="white"/>
</linearGradient>
<linearGradient id="paint7_linear" x1="1357.41" y1="2779.21" x2="1883.89" y2="2335.9" gradientUnits="userSpaceOnUse">
<stop stop-color="white"/>
<stop offset="1" stop-color="white"/>
</linearGradient>
<linearGradient id="paint8_linear" x1="599.379" y1="3820.12" x2="872.166" y2="3590.43" gradientUnits="userSpaceOnUse">
<stop stop-color="white"/>
<stop offset="1" stop-color="white"/>
</linearGradient>
<linearGradient id="paint9_linear" x1="144.257" y1="3863.24" x2="309.265" y2="3724.3" gradientUnits="userSpaceOnUse">
<stop stop-color="white"/>
<stop offset="1" stop-color="white"/>
</linearGradient>
<linearGradient id="paint10_linear" x1="1276.41" y1="4135.21" x2="1802.89" y2="3691.9" gradientUnits="userSpaceOnUse">
<stop stop-color="white"/>
<stop offset="1" stop-color="white"/>
</linearGradient>
<clipPath id="clip0">
<rect width="1440" height="4735" fill="white"/>
</clipPath>
</defs>
</svg>
